<?xml version="1.0" encoding="UTF-8"?>
<svg xmlns="http://www.w3.org/2000/svg" width="191" height="53" viewBox="0 0 191 53" fill="none">
  <path d="M35.8155 29.4193C36.1728 29.4193 36.4786 29.5427 36.7269 29.7927C36.9751 30.0396 37.1023 30.3437 37.1023 30.699C37.1023 31.0544 36.9782 31.3585 36.7269 31.6054C36.4756 31.8523 36.1728 31.9788 35.8155 31.9788C32.8 31.9788 29.951 30.2263 27.2715 26.7182C27.1413 27.0525 26.9718 27.3717 26.7659 27.6728C25.6699 29.3229 23.7291 30.4943 20.9407 31.1838C19.9204 31.4428 18.8092 31.6325 17.6042 31.7499C16.7353 31.8252 15.8572 31.8644 14.9671 31.8644C7.60082 31.8644 2.95639 30.4883 1.03686 27.736C-0.198424 25.9775 -0.331641 23.7854 0.646292 21.1656C0.76437 20.8314 0.988417 20.5935 1.31238 20.455C1.62725 20.3044 1.95121 20.2863 2.29031 20.4068C2.62638 20.5272 2.87162 20.7471 3.023 21.0693C3.1653 21.3945 3.17438 21.7227 3.05631 22.0569C2.39325 23.8365 2.4205 25.2458 3.13805 26.2816C3.7345 27.1338 4.82446 27.8143 6.40792 28.3202C8.49095 28.9796 11.343 29.3079 14.9671 29.3079C17.3226 29.3079 19.3602 29.0369 21.086 28.4979C22.8118 27.9468 23.9895 27.203 24.6162 26.2636C25.246 25.315 25.2551 24.1106 24.6496 22.6531C24.1288 21.7257 23.5687 20.6688 22.9722 19.4794C22.733 19.0036 22.4727 18.4766 22.1911 17.8925L21.8157 17.1156L21.4402 16.3387C21.0073 15.4444 20.6864 14.7849 20.4805 14.3633C20.3291 14.0381 20.3079 13.7099 20.4169 13.3757C20.535 13.0414 20.753 12.7975 21.0678 12.647C21.3948 12.4964 21.7248 12.4753 22.0609 12.5807C22.397 12.7012 22.6422 12.915 22.7936 13.2281C23.0116 13.6587 23.3356 14.3302 23.7715 15.2366L24.0319 15.8027L24.3256 16.3869C24.5315 16.8175 24.7222 17.2119 24.8948 17.5672C25.3277 18.4616 25.7365 19.2656 26.1149 19.9792C27.0929 21.804 28.0193 23.3367 28.8974 24.5773C31.1984 27.8053 33.5024 29.4163 35.8155 29.4163V29.4193ZM18.4822 12.3278C17.8737 12.3278 17.468 12.0417 17.2621 11.4696C17.1531 11.1354 17.1743 10.8071 17.3257 10.4819C17.477 10.1688 17.7223 9.95196 18.0583 9.83452C24.698 7.54602 30.3385 4.45052 34.9829 0.545009C35.2554 0.31917 35.5703 0.216789 35.9276 0.237868C36.2758 0.270991 36.5634 0.42155 36.7905 0.692557C37.0296 0.963564 37.1326 1.27673 37.0993 1.63205C37.066 1.97833 36.9146 2.2644 36.6451 2.49024C31.7615 6.61255 25.8485 9.87066 18.9061 12.2676C18.7638 12.3097 18.6245 12.3308 18.4822 12.3308V12.3278Z" fill="#949F7A"></path>
  <path d="M34.986 31.6024C34.7377 31.3555 34.6105 31.0514 34.6105 30.696C34.6105 30.3407 34.7347 30.0366 34.986 29.7897C35.2342 29.5427 35.54 29.4163 35.8973 29.4163H37.0539C37.5413 29.4042 37.9985 29.3892 38.4224 29.3681C39.5396 29.3139 40.5447 29.2055 41.4318 29.0429C43.8631 28.5792 45.5071 27.6939 46.3639 26.387C46.4396 26.2786 46.5092 26.1612 46.5758 26.0317C45.3284 26.2907 44.1174 26.3328 42.9457 26.1612C41.6438 25.9775 40.575 25.5469 39.7394 24.8664C39.1429 24.3816 38.7039 23.7914 38.4224 23.1018C38.0439 22.2075 37.95 21.1747 38.1468 20.0093C38.386 18.6814 38.8735 17.5221 39.6122 16.5284C40.3389 15.5468 41.2078 14.8993 42.216 14.5862C42.4885 14.4898 42.7761 14.4296 43.0789 14.4085C43.4483 14.3754 43.8207 14.3935 44.2022 14.4567C45.1801 14.6283 46.0914 15.1433 46.9361 15.9954C48.3682 17.4107 49.2523 19.3137 49.5884 21.7076C49.9365 24.1587 49.5823 26.1853 48.5317 27.7932C47.3267 29.618 45.2649 30.8406 42.3462 31.4669C41.3592 31.6717 40.2511 31.8132 39.0249 31.8885C38.2013 31.9427 37.1598 31.9698 35.9003 31.9698C35.5431 31.9698 35.2373 31.8463 34.989 31.5964L34.986 31.6024ZM37.1507 9.78334C36.9872 9.47018 36.96 9.14196 37.069 8.79567C37.178 8.46143 37.3899 8.2115 37.7048 8.05191C39.7 7.0281 41.883 6.57944 44.2476 6.70892C45.0075 6.75107 45.7402 6.85044 46.4456 7.001C46.6727 7.0552 46.8907 7.10941 47.0966 7.16361C47.1602 7.18468 47.2268 7.20275 47.2934 7.21179L47.3418 7.24491H47.3751C47.7112 7.36536 47.9564 7.57915 48.1078 7.89231C48.2592 8.20548 48.2804 8.52767 48.1714 8.86493C48.0533 9.19917 47.8353 9.4491 47.5205 9.60869C47.2177 9.75925 46.8968 9.78033 46.5607 9.67192H46.5456L46.5123 9.65687C46.4699 9.64482 46.4184 9.62977 46.3669 9.60869C46.2155 9.57557 46.046 9.53943 45.8613 9.49427C45.2982 9.37683 44.7108 9.29854 44.1022 9.26843C42.1827 9.17207 40.4357 9.52739 38.8614 10.3374C38.6767 10.4338 38.4829 10.4819 38.274 10.4819C37.7532 10.4819 37.3778 10.2501 37.1507 9.78635V9.78334ZM42.9759 17.0192C42.4552 17.1909 41.9768 17.5974 41.5439 18.2327C41.12 18.8681 40.8324 19.6088 40.681 20.449C40.4963 21.5511 40.7294 22.3641 41.3804 22.894C41.9889 23.3909 42.8821 23.6559 44.0659 23.686C45.1498 23.7281 46.1701 23.5716 47.1269 23.2162C47.1148 22.2015 46.9361 21.2078 46.591 20.2382C46.2216 19.2234 45.7341 18.4134 45.1256 17.8112C44.5503 17.239 43.9932 16.953 43.4483 16.953C43.2848 16.953 43.1273 16.9741 42.9759 17.0192Z" fill="#949F7A"></path>
  <path d="M60.5848 31.9577C60.282 31.9457 59.9974 31.9246 59.7371 31.8945C59.0649 31.8312 58.4685 31.6957 57.9477 31.491C56.4278 30.8857 55.462 29.6993 55.0503 27.9287C54.8444 27.0645 54.7475 24.4719 54.7566 20.1448V17.0373C54.7445 15.8599 54.7293 14.8241 54.7081 13.9297C54.6445 11.6412 54.5113 9.84657 54.3176 8.53971C54.2631 8.19343 54.3448 7.88026 54.5628 7.60022C54.7687 7.30814 55.0442 7.1365 55.3924 7.0823C55.7496 7.04014 56.0706 7.12144 56.3521 7.3262C56.6337 7.53097 56.8033 7.81101 56.8578 8.16633C57.0758 9.54846 57.215 11.4184 57.2816 13.7822C57.3028 14.7006 57.318 15.7636 57.3301 16.971V22.4092C57.3301 23.2283 57.3361 23.9299 57.3452 24.5141C57.3785 25.9504 57.4482 26.8929 57.5571 27.3476C57.763 28.2329 58.193 28.814 58.8439 29.0971C59.3223 29.3018 60.1579 29.4042 61.3508 29.4042C61.699 29.4042 61.9957 29.5277 62.247 29.7776C62.5074 30.0245 62.6376 30.3287 62.6376 30.684C62.6376 31.0393 62.5074 31.3434 62.247 31.5903C61.9957 31.8403 61.699 31.9637 61.3508 31.9637H60.5848V31.9577Z" fill="#949F7A"></path>
  <path d="M88.9207 29.4012C89.2779 29.4012 89.5837 29.5307 89.832 29.7896C90.0802 30.0366 90.2074 30.3347 90.2074 30.681C90.2074 31.0272 90.0833 31.3404 89.832 31.5873C89.5837 31.8463 89.2779 31.9758 88.9207 31.9758C86.6529 31.9758 84.7152 31.6084 83.1106 30.8767C81.5059 30.154 80.31 29.1061 79.5289 27.736C77.8455 28.5882 76.0228 29.3229 74.0609 29.9372C69.7314 31.3073 65.42 31.9878 61.1237 31.9758C60.7544 31.9878 60.4455 31.8674 60.1973 31.6204C59.949 31.3735 59.8218 31.0694 59.8218 30.7141C59.8218 30.3588 59.946 30.0546 60.1973 29.8077C60.4455 29.5608 60.7513 29.4343 61.1086 29.4343C64.6994 29.4343 68.3629 28.9044 72.0929 27.8474C76.2923 26.661 79.7196 25.0139 82.3779 22.9121C81.3576 22.611 80.4099 22.34 79.5289 22.1021C78.3783 21.7889 77.3217 21.5149 76.3559 21.277C74.3818 20.8013 72.8014 20.5001 71.6206 20.3707C71.1877 20.3164 70.8183 20.2893 70.5155 20.2893C70.2975 20.3014 70.125 20.3164 69.9948 20.3375C68.9533 20.5634 68.2357 20.9368 67.8451 21.4547C67.5303 21.8552 67.2093 22.7073 66.8854 24.0112C66.7976 24.3575 66.6038 24.6164 66.298 24.7881C65.9952 24.9717 65.6682 25.0199 65.3201 24.9326C64.9719 24.8453 64.7085 24.6526 64.5238 24.3484C64.3391 24.0473 64.2907 23.7221 64.3785 23.3758C64.8023 21.7347 65.2777 20.5664 65.8105 19.8648C66.5796 18.862 67.7967 18.1875 69.4558 17.8413C69.9978 17.7238 70.7184 17.7058 71.6206 17.7931C72.9437 17.9105 74.73 18.2448 76.9765 18.7958C78.2451 19.0969 79.6893 19.4763 81.3061 19.928C81.8935 20.0996 82.5172 20.2833 83.1772 20.4791C83.4255 20.5543 83.6979 20.6296 83.9916 20.7049L84.3489 20.8193L84.6759 20.9157C84.9574 21.003 85.1694 21.0602 85.3117 21.0933C85.7779 21.2349 86.0716 21.536 86.1897 21.9997C86.3078 22.4634 86.2018 22.8669 85.8627 23.2132C84.7122 24.3906 83.3467 25.4746 81.7602 26.4653C82.39 27.5553 83.4376 28.3443 84.8999 28.8291C86.0292 29.2055 87.3675 29.3952 88.9207 29.3952V29.4012ZM76.2923 37.8325C76.2923 38.3384 76.0955 38.7991 75.7049 39.2086C75.3144 39.6061 74.8844 39.8079 74.4182 39.8079C73.9519 39.8079 73.41 39.6151 72.8559 39.2237C72.4653 38.8021 72.2685 38.3384 72.2685 37.8325C72.2685 37.3808 72.4744 36.9412 72.8862 36.5227C73.3191 36.08 73.7763 35.8602 74.2547 35.8602C74.7331 35.8602 75.1993 36.0589 75.6232 36.4594C76.0682 36.881 76.2893 37.3387 76.2893 37.8355L76.2923 37.8325Z" fill="#949F7A"></path>
  <path d="M100.962 29.4193C101.319 29.4193 101.625 29.5427 101.873 29.7927C102.121 30.0396 102.248 30.3437 102.248 30.699C102.248 31.0544 102.124 31.3585 101.873 31.6054C101.625 31.8523 101.319 31.9788 100.962 31.9788C100.062 31.9788 99.2419 31.8162 98.5032 31.494C97.5586 31.0724 96.7835 30.3919 96.1749 29.4554C96.0568 29.6271 95.9297 29.7897 95.7995 29.9402C95.0608 30.7502 94.0313 31.3103 92.7083 31.6235C91.7303 31.8614 90.4466 31.9788 88.851 31.9788C88.4938 31.9788 88.188 31.8553 87.9397 31.6054C87.6914 31.3585 87.5643 31.0544 87.5643 30.699C87.5643 30.3437 87.6884 30.0396 87.9397 29.7927C88.188 29.5458 88.4938 29.4193 88.851 29.4193C91.4881 29.4193 93.1624 29.0188 93.88 28.2208C94.5521 27.4771 94.7913 26.1642 94.5975 24.2882C94.5642 23.954 94.5279 23.5806 94.4825 23.1711L94.4492 22.6381L94.4007 22.1202C94.3674 21.6564 94.3402 21.3162 94.319 21.0994C94.2857 20.7531 94.3856 20.4399 94.6127 20.1599C94.8397 19.8889 95.1274 19.7383 95.4755 19.7082C95.8328 19.6751 96.1477 19.7714 96.4202 20.0003C96.6927 20.2261 96.844 20.5182 96.8773 20.8735C96.8985 21.0903 96.9318 21.4396 96.9742 21.9244C97.171 24.4599 97.4829 26.2395 97.9189 27.2663C98.5153 28.7026 99.5296 29.4193 100.962 29.4193ZM95.851 14.6404C95.851 15.1794 95.6451 15.6642 95.2333 16.0978C94.8094 16.5194 94.3493 16.7301 93.8497 16.7301C93.3501 16.7301 92.7749 16.5254 92.1905 16.1159C91.7788 15.6732 91.5729 15.1824 91.5729 14.6434C91.5729 14.1676 91.7939 13.7039 92.239 13.2522C92.6961 12.7885 93.1775 12.5566 93.6862 12.5566C94.1948 12.5566 94.6793 12.7674 95.1334 13.189C95.6118 13.6316 95.8479 14.1164 95.8479 14.6464L95.851 14.6404Z" fill="#949F7A"></path>
  <path d="M107.538 30.9068C107.235 30.5395 106.996 30.1089 106.82 29.612C105.291 31.1869 103.396 31.9758 101.14 31.9758C100.783 31.9758 100.477 31.8523 100.229 31.6024C99.9807 31.3525 99.8535 31.0514 99.8535 30.696C99.8535 30.3407 99.9776 30.0486 100.229 29.7897C100.477 29.5428 100.783 29.4163 101.14 29.4163C102.975 29.4163 104.437 28.6665 105.533 27.1669C105.945 26.6159 106.293 25.9685 106.575 25.2247C106.793 24.6737 106.959 24.1015 107.081 23.5083C107.123 23.2825 107.162 23.1048 107.196 22.9754C107.25 22.6291 107.423 22.355 107.716 22.1503C107.998 21.9455 108.313 21.8702 108.661 21.9244C109.018 21.9786 109.3 22.1503 109.506 22.4424C109.712 22.7345 109.787 23.0506 109.733 23.3969C109.69 23.6348 109.642 23.8727 109.587 24.1106L109.539 24.3695L109.475 24.6616L109.427 24.9688C109.372 25.2066 109.33 25.4265 109.297 25.6312C109.209 26.1612 109.154 26.6249 109.133 27.0224C109.058 28.1124 109.194 28.8682 109.539 29.2898L109.587 29.3561L109.669 29.4374C109.745 29.5006 109.839 29.5578 109.945 29.6C110.247 29.7505 110.65 29.8258 111.15 29.8258C111.595 29.8258 112.137 29.5006 112.779 28.8532C113.496 28.1185 114.108 27.197 114.616 26.0859C115.116 24.9748 115.391 23.945 115.446 22.9934L115.461 22.5568C115.461 22.2105 115.585 21.9154 115.837 21.6655C116.085 21.4186 116.385 21.2921 116.733 21.2921H116.748C117.096 21.2921 117.393 21.4125 117.644 21.6474C117.892 21.8943 118.022 22.1924 118.035 22.5387C118.035 22.7104 118.029 22.888 118.019 23.0717L118.004 23.5565V24.0112C117.95 25.6523 118.086 26.9531 118.41 27.9107C118.788 29.0339 119.542 29.5939 120.672 29.5939C121.453 29.5939 122.07 29.4645 122.528 29.2055C122.691 29.1182 122.827 29.0218 122.933 28.9134C122.976 28.8713 123.021 28.8231 123.064 28.7689L123.13 28.6725C124.029 27.3777 123.663 24.6044 122.022 20.3526C121.901 20.0184 121.913 19.6901 122.055 19.3649C122.198 19.0518 122.434 18.832 122.773 18.7025C123.109 18.573 123.436 18.585 123.751 18.7356C124.078 18.8771 124.305 19.112 124.435 19.4462C125.304 21.7016 125.846 23.5836 126.064 25.0952C126.367 27.2332 126.1 28.9044 125.268 30.1119C124.323 31.4729 122.794 32.1504 120.678 32.1504C119.615 32.1504 118.664 31.8553 117.829 31.2591C117.005 30.675 116.403 29.877 116.021 28.8622C115.588 29.5307 115.122 30.1209 114.622 30.6268C113.472 31.7921 112.315 32.3763 111.156 32.3763C109.56 32.3763 108.355 31.8855 107.544 30.9038L107.538 30.9068Z" fill="#949F7A"></path>
  <path d="M164.037 26.5316C164.17 26.5828 164.379 26.5828 164.388 26.7725C164.394 26.929 164.209 26.9652 164.097 27.0344C161.89 28.3594 159.692 29.7054 157.464 31.0032C156.204 31.7349 154.833 32.1715 153.437 32.2227C152.044 32.2046 150.924 31.765 150.025 30.7954C149.804 30.5575 149.786 30.428 150.125 30.2715C152.683 29.082 155.214 27.8204 157.794 26.6882C159.825 25.7938 161.936 25.7396 164.034 26.5346L164.037 26.5316Z" fill="#CF9253"></path>
  <path d="M164.497 21.6715C164.975 21.9636 164.972 21.9847 164.503 22.2888C163.446 22.9754 162.305 23.3186 160.915 23.3186C159.807 23.3367 158.663 22.9362 157.54 22.4032C155.735 21.5451 153.937 20.6808 152.402 19.377C151.348 18.4857 150.53 17.4438 150.325 16.0225C150.207 15.2185 150.349 14.4447 150.564 13.6708C150.664 13.3125 150.815 13.3034 151.112 13.4901C152.598 14.4115 154.094 15.3149 155.587 16.2273C158.557 18.043 161.527 19.8558 164.497 21.6715Z" fill="#CF9253"></path>
  <path d="M180.877 31.5843C181.503 31.9607 182.151 32.2859 182.82 32.5479C180.898 36.869 176.547 39.8832 171.488 39.8832H170.262C170.262 39.299 170.262 38.7178 170.262 38.1367C170.268 36.083 170.458 34.0445 171.013 32.0541C171.458 30.4401 172.154 28.9616 173.377 27.7631C173.704 27.4409 173.958 27.4048 174.367 27.6547C176.523 28.9797 178.703 30.2745 180.871 31.5843H180.877Z" fill="#CF9253"></path>
  <path d="M182.608 27.0977C183.029 27.3024 183.45 27.5072 183.874 27.7059C183.862 29.061 183.626 30.3618 183.205 31.5783C182.442 31.2682 181.712 30.8737 181.004 30.4401C179.145 29.3079 177.271 28.1907 175.412 27.0585C175.275 26.9802 175.033 26.9411 175.064 26.7484C175.094 26.5767 175.333 26.5677 175.481 26.5105C176.508 26.116 177.601 25.9564 178.945 26.0317C180.111 26.0769 181.376 26.5015 182.605 27.0977H182.608Z" fill="#CF9253"></path>
  <path d="M171.488 0H156.159C149.316 0 143.773 5.51348 143.773 12.3188V27.5644C143.773 34.3697 149.316 39.8832 156.159 39.8832H169.196C169.196 39.1515 169.19 38.4227 169.184 37.691C169.163 35.2369 168.869 32.8069 167.909 30.5093C167.464 29.4374 166.853 28.4768 165.987 27.6818C165.72 27.4379 165.52 27.3958 165.19 27.5975C162.817 29.0429 160.446 30.4913 158.039 31.8824C156.534 32.7557 154.902 33.3158 153.128 33.2465C151.042 33.1652 149.468 32.2348 148.478 30.3708C148.317 30.0727 148.363 29.9282 148.678 29.7806C151.572 28.4286 154.43 26.9983 157.358 25.7246C159.946 24.5984 162.593 24.6165 165.157 25.9022C165.505 26.0769 165.769 26.0678 166.084 25.8541C166.477 25.5861 166.898 25.3572 167.313 25.1223C167.612 24.9567 167.936 24.9236 168.121 25.2518C168.294 25.5559 168.185 25.839 167.861 26.0227C167.528 26.2124 167.198 26.4141 166.868 26.6068C166.686 26.7122 166.622 26.8297 166.801 26.9983C168.339 28.4617 169.102 30.3257 169.605 32.3281C169.62 32.3853 169.65 32.4395 169.683 32.4937C169.699 32.5148 169.735 32.5148 169.792 32.5419C170.083 31.4488 170.404 30.3708 170.925 29.3621C171.355 28.525 171.869 27.7481 172.569 27.1097C172.838 26.8628 172.808 26.7243 172.499 26.5376C170.407 25.2789 168.321 24.0082 166.241 22.7345C166.041 22.611 165.896 22.605 165.702 22.7525C162.856 24.9025 159.871 24.773 156.813 23.2584C155.341 22.5267 153.864 21.804 152.535 20.8254C151.296 19.913 150.191 18.8862 149.61 17.4167C148.977 15.8087 149.183 14.2339 149.813 12.6801C150.203 11.7165 150.213 11.7165 151.088 12.2495C155.856 15.1583 160.631 18.0671 165.393 20.991C165.738 21.2048 165.938 21.1717 166.205 20.8856C167.482 19.5095 168.424 17.9256 169.147 16.2032C169.263 15.9262 169.362 15.6491 169.732 15.6461C170.104 15.6401 170.21 15.9232 170.322 16.1942C171.04 17.9196 171.984 19.5004 173.262 20.8796C173.547 21.1897 173.75 21.2018 174.11 20.982C177.365 18.9825 180.622 16.9921 183.88 15.0017V12.3248C183.88 5.51951 178.336 0.00602237 171.494 0.00602237L171.488 0ZM169.808 13.5443C168.509 13.5383 167.516 12.5326 167.519 11.2257C167.525 9.97004 168.545 8.97033 169.823 8.97334C171.094 8.97936 172.115 9.9851 172.127 11.2438C172.136 12.5115 171.091 13.5473 169.804 13.5413L169.808 13.5443Z" fill="#CF9253"></path>
  <path d="M180.656 18.1996C181.727 17.5432 182.802 16.8898 183.874 16.2363V21.4517C183.55 21.6233 183.223 21.792 182.89 21.9546C181.858 22.4695 180.831 22.9904 179.681 23.2012C177.916 23.5294 176.296 23.1952 174.806 22.1985C174.452 21.9606 174.664 21.8582 174.876 21.7287C176.801 20.5544 178.727 19.377 180.653 18.2026L180.656 18.1996Z" fill="#CF9253"></path>
  <path d="M180.565 24.0564C181.718 23.7011 182.817 23.2373 183.877 22.6893V26.5316C183.493 26.3509 183.102 26.1672 182.717 25.9865C179.847 24.6405 176.974 24.5321 174.11 25.9926C173.919 26.0889 173.771 26.0799 173.595 25.9715C171.433 24.6526 169.266 23.3367 167.101 22.0268C166.886 21.8974 166.813 21.7829 167.013 21.5721C168.051 20.47 168.881 19.2234 169.553 17.8714C169.662 17.6486 169.765 17.5733 169.907 17.8563C170.583 19.2234 171.421 20.4791 172.469 21.5932C172.654 21.792 172.587 21.9034 172.39 22.0178C172.112 22.1804 171.836 22.349 171.567 22.5237C171.282 22.7044 171.161 22.9633 171.343 23.2674C171.524 23.5655 171.803 23.6017 172.102 23.427C172.445 23.2253 172.802 23.0356 173.123 22.8037C173.41 22.5929 173.61 22.6381 173.889 22.8429C175.911 24.3244 178.158 24.8031 180.565 24.0624V24.0564Z" fill="#CF9253"></path>
  <path d="M190.629 29.7144C188.376 28.6514 186.124 27.5915 183.874 26.5285V27.5644C183.874 27.6126 183.874 27.6577 183.874 27.7029C185.678 28.5671 187.492 29.4133 189.312 30.2534C189.69 30.431 189.663 30.5545 189.409 30.8225C188.076 32.2167 186.444 32.4365 184.655 32.036C184.153 31.9216 183.671 31.768 183.205 31.5753C183.093 31.9065 182.963 32.2317 182.82 32.5479C183.568 32.846 184.343 33.0628 185.158 33.1953C187.528 33.5807 189.884 32.4937 190.907 30.5154C191.092 30.154 191.001 29.886 190.632 29.7114L190.629 29.7144ZM189.823 17.4859C190.55 15.6853 190.238 13.9448 189.463 12.2435C189.306 11.9002 189.072 11.8249 188.758 12.0146C187.129 13.0083 185.503 14.002 183.874 14.9987V16.2363C185.37 15.3239 186.862 14.4115 188.352 13.4901C188.691 13.2823 188.812 13.3426 188.906 13.7009C189.054 14.264 189.194 14.8241 189.181 15.1854C189.172 17.2029 188.191 18.4495 186.89 19.5155C185.957 20.2803 184.934 20.8976 183.874 21.4547V22.6923C185.085 22.063 186.236 21.3252 187.344 20.5092C188.415 19.7172 189.318 18.7506 189.826 17.489L189.823 17.4859ZM169.196 39.8862C169.214 43.9603 169.196 48.0344 169.196 52.1116C169.196 52.7379 169.362 53.0059 169.741 52.9999C170.116 52.9999 170.265 52.7439 170.265 52.0965C170.265 48.0284 170.259 43.9573 170.265 39.8862H169.199H169.196Z" fill="#95908D"></path>
</svg>
